<svg width="17" height="17" viewBox="0 0 17 17" fill="none" xmlns="http://www.w3.org/2000/svg">
<path d="M17 17H13.7308V11.0465C13.7308 9.41333 13.0385 8.50232 11.797 8.50232C10.446 8.50232 9.64423 9.45161 9.64423 11.0465V17H6.375V5.94196H9.64423V7.18556C9.64423 7.18556 10.67 5.3125 12.9813 5.3125C15.2935 5.3125 17 6.78067 17 9.81908V17ZM1.59408 3.1875C0.713485 3.1875 0 2.4737 0 1.59343C0 0.713803 0.713485 0 1.59408 0C2.47402 0 3.1875 0.713803 3.1875 1.59343C3.18815 2.4737 2.47402 3.1875 1.59408 3.1875ZM0 17H3.1875V6.375H0V17Z" fill="white"/>
</svg>
