<svg xmlns="http://www.w3.org/2000/svg" viewBox="0 0 327.84 113.21" style="enable-background:new 0 0 327.84 113.21"
  xml:space="preserve">
  <path
    d="m90.32 22.19-17.03 9.83 17.03 9.83v19.67l17.03-9.84V32.02l-17.03-9.83zM22.19 61.53l17.03 9.83v19.67l17.03-9.83V61.53L39.22 51.7l-17.03 9.83zm51.09-29.51-17.03-9.83-17.03 9.83 17.03 9.83v19.67l17.03 9.83v19.67l17.03-9.83V61.52l-17.03-9.83V32.02zm115.08 27.72c0 7.91 4.54 12.03 10.7 12.03 4.66 0 7-2.2 8.17-4.17h.47v3.04c0 5.83-2.25 8.94-8.14 8.94-5.85 0-8.12-3-8.43-6.04h-2.15v.7c.42 3.56 3.42 7.35 10.58 7.35 7.35 0 10.39-4.07 10.39-10.81V48.27h-2.25v3.6h-.47c-1.15-1.92-3.51-4.17-8.17-4.17-6.16.01-10.7 4.13-10.7 12.04zm2.25 0c0-6.41 3.49-10.04 8.57-10.04s8.57 3.63 8.57 10.04-3.49 10.04-8.57 10.04-8.57-3.63-8.57-10.04zm26.43 11.93h2.25v-33.7h-2.25v33.7zm7.48-11.7c0 7.77 4.31 12.26 11.09 12.26 6.79 0 11.09-4.49 11.09-12.26s-4.31-12.26-11.09-12.26-11.09 4.49-11.09 12.26zm2.29 0c0-6.69 3.56-10.3 8.8-10.3s8.8 3.6 8.8 10.3c0 6.69-3.56 10.3-8.8 10.3s-8.8-3.6-8.8-10.3zm24.54 11.7h2.25v-3.79h.47c1.12 2.04 3.56 4.35 8.36 4.35 6.25 0 10.79-4.31 10.79-12.26s-4.54-12.26-10.79-12.26c-4.8 0-7.23 2.32-8.36 4.35h-.47V37.97h-2.25v33.7zm2.2-11.7c0-6.55 3.56-10.27 8.71-10.27s8.71 3.72 8.71 10.27c0 6.55-3.56 10.27-8.71 10.27-5.15.01-8.71-3.71-8.71-10.27zm26.44-5.15c.14-3.46 2.95-5.15 7.16-5.15s6.6 1.78 6.6 5.52c0 2.15-1.22 2.72-3.42 2.9l-5.48.51c-4.59.42-8.14 2.25-8.14 6.74 0 4.03 3.32 6.88 8.24 6.88 4.68 0 7.07-1.92 8.38-4.49h.47c0 2.57 1.45 3.93 4.21 3.93h1.4v-1.97h-1.5c-1.31 0-1.97-.66-1.97-1.97V55.67c0-5.52-3.42-7.96-8.75-7.96-5.34 0-8.94 2.43-9.41 6.41v.7h2.21zm-1.03 10.44c0-3 2.15-4.31 6.23-4.73l4.31-.42c2.48-.23 3.14-.51 3.84-.98h.47v1.73c0 6.65-4.07 9.41-8.71 9.41-3.61 0-6.14-2.01-6.14-5.01zm24.45 6.41h2.25v-33.7h-2.25v33.7zM138.57 39.85c.31-.49.54-1.21.54-1.75 0-1.25-.99-2.02-2.33-2.02-4.93 0-10.12 5.78-11.6 11.96l-3.75.63-.11.35h3.72c0 .18-3.9 21.77-3.9 21.77-.85 4.66-2.46 8.15-5.29 10.3l.04.09c4.61-1.21 8.38-6.09 9.45-12.09l3.67-20.07h6.18l.18-.98h-6.27c-.94-.27-1.52-1.12-1.52-2.51 0-1.57 1.08-3.76 2.78-5.69h8.21zm17.65 7.75c-1.21.63-3 1.16-4.52 1.48-1.39-.9-3.27-1.48-5.15-1.48-7.26 0-12.94 8.02-12.94 17.42 0 4.43 1.88 7.21 5.06 7.21 4.93 0 8.42-5.37 12.36-17.29l-.81 10.84c-.31 5.6-2.74 9.56-6.14 12.03h-11.1c-.13.27-.27.74-.27 1.1 0 1.34 1.21 2.28 3.18 2.28 8.47 0 15.45-6.36 17.74-18.9l2.69-14.69h-.1zm-15.59 22.13c-1.79 0-2.82-2.06-2.82-6 0-8.15 4.12-15.45 9.32-15.45 2.06 0 3.81 1.03 4.57 2.96l-.13.67c-4.08 11.95-7.4 17.82-10.94 17.82zm33.77-13.26c1.39 0 2.69-1.25 2.69-3.18 0-3.49-3-5.69-8.02-5.69-5.11 0-8.91 3.09-8.91 7.12 0 3.58 3.4 5.24 6.63 6.76 2.87 1.34 5.55 2.64 5.55 5.37 0 2.82-2.69 4.84-6.58 4.84-2.28 0-3.58-.4-4.48-1.08v-7.66c-.22-.13-.54-.22-.99-.22-1.39 0-2.69 1.48-2.69 3.63 0 3.58 2.82 5.87 8.15 5.87 5.87 0 10.12-3.27 10.12-7.61 0-3.31-3.31-4.97-6.49-6.45-3-1.43-5.91-2.87-5.91-5.6 0-2.69 2.42-4.43 5.55-4.43 2.11 0 3.4.4 4.39 1.16v6.94c.23.1.55.23.99.23z"
    fill="#ffffff" />
</svg>
