<svg width="17" height="15" viewBox="0 0 17 15" fill="none" xmlns="http://www.w3.org/2000/svg">
<path d="M5.3465 14.875C11.7614 14.875 15.2703 9.15152 15.2703 4.18867C15.2703 4.02574 15.2702 3.86373 15.26 3.70264C15.9426 3.17175 16.5317 2.51273 17 1.7585C16.3642 2.06239 15.6884 2.26193 14.9974 2.3498C15.725 1.88024 16.2698 1.1425 16.5308 0.272029C15.8457 0.70955 15.0968 1.01801 14.3157 1.18368C12.9948 -0.32842 10.7857 -0.401645 9.3806 1.02076C8.47535 1.93791 8.0903 3.30539 8.37165 4.60972C5.5675 4.45777 2.9546 3.03171 1.1832 0.685752C0.25755 2.40197 0.731 4.5969 2.26355 5.69894C1.7085 5.68155 1.16535 5.52046 0.68 5.22939V5.27698C0.68085 7.0646 1.8513 8.60416 3.4782 8.95839C2.9648 9.10942 2.4259 9.13138 1.904 9.02246C2.36045 10.5529 3.6703 11.6009 5.16205 11.6311C3.927 12.6764 2.40125 13.2439 0.83045 13.2421C0.55335 13.2412 0.27625 13.2238 0 13.1881C1.59545 14.2901 3.451 14.875 5.3465 14.8723" fill="white"/>
</svg>
