<svg width="17" height="16" viewBox="0 0 17 16" fill="none" xmlns="http://www.w3.org/2000/svg" stroke-width="0">
  <path fill-rule="evenodd" clip-rule="evenodd"
    d="M8.49997 1.43042C6.55596 1.43042 4.98003 3.00635 4.98003 4.95036C4.98003 5.61078 5.19974 6.35809 5.56106 7.13066C5.92005 7.89826 6.40347 8.65854 6.89478 9.33606C7.38508 10.0122 7.87648 10.5967 8.2457 11.0124C8.33912 11.1176 8.42455 11.2118 8.49997 11.2938C8.57539 11.2118 8.66083 11.1176 8.75424 11.0124C9.12346 10.5967 9.61487 10.0122 10.1052 9.33606C10.5965 8.65854 11.0799 7.89826 11.4389 7.13066C11.8002 6.35809 12.0199 5.61078 12.0199 4.95036C12.0199 3.00635 10.444 1.43042 8.49997 1.43042ZM8.49997 12.0199C8.14652 12.3736 8.14644 12.3735 8.14634 12.3734L8.14607 12.3731L8.14526 12.3723L8.14254 12.3696L8.13284 12.3598L8.09698 12.3233C8.06601 12.2915 8.02121 12.2452 7.96457 12.1855C7.85132 12.0662 7.69052 11.8933 7.49801 11.6765C7.11349 11.2435 6.59991 10.6329 6.08522 9.92311C5.57154 9.21473 5.04998 8.39836 4.65523 7.5543C4.26281 6.71522 3.98003 5.81588 3.98003 4.95036C3.98003 2.45407 6.00368 0.43042 8.49997 0.43042C10.9963 0.43042 13.0199 2.45407 13.0199 4.95036C13.0199 5.81588 12.7371 6.71522 12.3447 7.5543C11.95 8.39836 11.4284 9.21473 10.9147 9.92311C10.4 10.6329 9.88645 11.2435 9.50193 11.6765C9.30942 11.8933 9.14862 12.0662 9.03537 12.1855C8.97873 12.2452 8.93394 12.2915 8.90297 12.3233L8.8671 12.3598L8.8574 12.3696L8.85469 12.3723L8.85387 12.3731L8.8536 12.3734C8.85351 12.3735 8.85343 12.3736 8.49997 12.0199ZM8.49997 12.0199L8.85343 12.3736C8.65819 12.5687 8.34176 12.5687 8.14652 12.3736L8.49997 12.0199ZM8.49997 3.92556C7.93399 3.92556 7.47517 4.38438 7.47517 4.95036C7.47517 5.51635 7.93399 5.97517 8.49997 5.97517C9.06596 5.97517 9.52478 5.51635 9.52478 4.95036C9.52478 4.38438 9.06596 3.92556 8.49997 3.92556ZM6.47517 4.95036C6.47517 3.83209 7.3817 2.92556 8.49997 2.92556C9.61824 2.92556 10.5248 3.83209 10.5248 4.95036C10.5248 6.06863 9.61824 6.97517 8.49997 6.97517C7.3817 6.97517 6.47517 6.06863 6.47517 4.95036ZM3.99859 10.5505C4.25883 10.4581 4.39496 10.1723 4.30262 9.91207C4.21028 9.65182 3.92446 9.5157 3.66421 9.60803C2.89317 9.88159 2.22999 10.23 1.75015 10.6487C1.27106 11.0668 0.93042 11.5972 0.93042 12.2195C0.93042 12.7933 1.22096 13.2904 1.64101 13.6908C2.05985 14.09 2.63931 14.4265 3.31409 14.6985C4.66632 15.2436 6.50003 15.5695 8.49997 15.5695C10.4999 15.5695 12.3336 15.2436 13.6859 14.6985C14.3606 14.4265 14.9401 14.09 15.3589 13.6908C15.779 13.2904 16.0695 12.7933 16.0695 12.2195C16.0695 11.5972 15.7289 11.0668 15.2498 10.6487C14.77 10.23 14.1068 9.88159 13.3357 9.60803C13.0755 9.5157 12.7897 9.65182 12.6973 9.91207C12.605 10.1723 12.7411 10.4581 13.0014 10.5505C13.7024 10.7992 14.2397 11.0945 14.5923 11.4022C14.9457 11.7106 15.0695 11.9891 15.0695 12.2195C15.0695 12.4327 14.9644 12.6853 14.669 12.9669C14.3724 13.2497 13.9165 13.5273 13.3119 13.771C12.1055 14.2574 10.4044 14.5695 8.49997 14.5695C6.59551 14.5695 4.89445 14.2574 3.68799 13.771C3.08344 13.5273 2.62759 13.2497 2.33095 12.9669C2.03552 12.6853 1.93042 12.4327 1.93042 12.2195C1.93042 11.9891 2.05422 11.7106 2.4076 11.4022C2.76023 11.0945 3.29753 10.7992 3.99859 10.5505Z"
    fill="#2D5453" />
</svg>