<svg width="12" height="13" viewBox="0 0 12 13" fill="none" xmlns="http://www.w3.org/2000/svg">
<path d="M12 12.5H9.69231V8.29754C9.69231 7.14471 9.20365 6.50164 8.32731 6.50164C7.37365 6.50164 6.80769 7.17173 6.80769 8.29754V12.5H4.5V4.69432H6.80769V5.57216C6.80769 5.57216 7.53173 4.25 9.16327 4.25C10.7954 4.25 12 5.28635 12 7.43111V12.5ZM1.12523 2.75C0.503636 2.75 0 2.24614 0 1.62477C0 1.00386 0.503636 0.5 1.12523 0.5C1.74637 0.5 2.25 1.00386 2.25 1.62477C2.25046 2.24614 1.74637 2.75 1.12523 2.75ZM0 12.5H2.25V5H0V12.5Z" fill="#2D5453"/>
</svg>
