<svg width="30" height="30" viewBox="0 0 30 30" fill="none" xmlns="http://www.w3.org/2000/svg">
<path d="M15 1C7.26801 1 0.999999 7.26801 0.999999 15C1 22.732 7.26801 29 15 29C22.732 29 29 22.732 29 15C29 7.26801 22.732 1 15 1Z" fill="#2D5453"/>
<path d="M14.6464 8.64645C14.8417 8.45118 15.1583 8.45118 15.3536 8.64645L18.5355 11.8284C18.7308 12.0237 18.7308 12.3403 18.5355 12.5355C18.3403 12.7308 18.0237 12.7308 17.8284 12.5355L15 9.70711L12.1716 12.5355C11.9763 12.7308 11.6597 12.7308 11.4645 12.5355C11.2692 12.3403 11.2692 12.0237 11.4645 11.8284L14.6464 8.64645ZM14.5 23L14.5 9L15.5 9L15.5 23L14.5 23Z" fill="white"/>
</svg>
