<svg width="12" height="12" viewBox="0 0 12 12" fill="none" xmlns="http://www.w3.org/2000/svg">
<path d="M3.774 11.25C8.3022 11.25 10.779 7.2099 10.779 3.70671C10.779 3.5917 10.779 3.47734 10.7718 3.36363C11.2536 2.98888 11.6694 2.52369 12 1.9913C11.5512 2.2058 11.0742 2.34666 10.5864 2.40868C11.1 2.07723 11.4846 1.55647 11.6688 0.94202C11.1852 1.25086 10.6566 1.4686 10.1052 1.58554C9.1728 0.518174 7.6134 0.466486 6.6216 1.47054C5.9826 2.11793 5.7108 3.08322 5.9094 4.00392C3.93 3.89666 2.0856 2.89003 0.8352 1.23406C0.1818 2.44551 0.516 3.99487 1.5978 4.77278C1.206 4.76051 0.8226 4.64679 0.48 4.44133V4.47493C0.4806 5.73677 1.3068 6.82353 2.4552 7.07357C2.0928 7.18018 1.7124 7.19568 1.344 7.1188C1.6662 8.19909 2.5908 8.93888 3.6438 8.9602C2.772 9.69805 1.695 10.0986 0.5862 10.0973C0.3906 10.0967 0.195 10.0844 0 10.0592C1.1262 10.8371 2.436 11.25 3.774 11.2481" fill="#2D5453"/>
</svg>
